<svg width="51" height="51" viewBox="0 0 51 51" fill="none" xmlns="http://www.w3.org/2000/svg">
<rect width="51" height="51" fill="#6FCF97"/>
<path d="M18.5 32.5V26.375H24.625L21.8101 29.1925C22.2909 29.6841 22.8648 30.0751 23.4984 30.3425C24.1319 30.6099 24.8123 30.7484 25.5 30.75C26.5843 30.7484 27.6416 30.4111 28.5265 29.7844C29.4114 29.1577 30.0805 28.2723 30.442 27.25H30.4577C30.5575 26.9656 30.6336 26.6725 30.6844 26.375H32.4449C32.2318 28.0666 31.4086 29.6222 30.1299 30.7499C28.8512 31.8777 27.2049 32.5 25.5 32.5H25.4912C24.5723 32.5028 23.662 32.3232 22.813 31.9717C21.9639 31.6203 21.193 31.1039 20.5449 30.4525L18.5 32.5ZM20.3147 24.625H18.5542C18.7673 22.934 19.5899 21.3789 20.8679 20.2512C22.1458 19.1236 23.7913 18.5009 25.4956 18.5H25.5C26.4191 18.4971 27.3296 18.6766 28.1788 19.028C29.028 19.3795 29.799 19.896 30.4472 20.5475L32.5 18.5V24.625H26.375L29.1942 21.8075C28.713 21.3153 28.1384 20.924 27.504 20.6566C26.8697 20.3892 26.1884 20.2509 25.5 20.25C24.4156 20.2516 23.3584 20.5889 22.4735 21.2156C21.5886 21.8423 20.9194 22.7277 20.558 23.75H20.5422C20.4416 24.0344 20.3655 24.3275 20.3156 24.625H20.3147Z" fill="white"/>
</svg>
